<svg width="26" height="27" viewBox="0 0 26 27" fill="none" xmlns="http://www.w3.org/2000/svg">
<g clip-path="url(#clip0_248_2070)">
<path d="M21.8635 10.5767C21.8635 5.91166 17.8951 2.12988 12.9999 2.12988C8.10462 2.12988 4.13623 5.91166 4.13623 10.5767V11.0855C4.13623 12.952 4.74823 14.772 5.88667 16.2908L12.9824 25.7577C12.9909 25.7691 13.0088 25.7691 13.0174 25.7577L20.1131 16.2908C21.2515 14.772 21.8635 12.952 21.8635 11.0855V10.5767Z" stroke="currentColor" stroke-linecap="round" stroke-linejoin="round"/>
<path d="M11.2674 7.19874C12.3622 6.6963 13.6375 6.6963 14.7323 7.19874C15.8271 7.70118 16.6223 8.65137 16.8927 9.78034C17.1631 10.9093 16.8793 12.0942 16.1217 12.9996C15.364 13.9049 14.215 14.4322 12.9999 14.4322C11.7847 14.4322 10.6357 13.9049 9.87807 12.9996C9.12044 12.0942 8.83665 10.9093 9.10705 9.78034C9.37744 8.65137 10.1726 7.70118 11.2674 7.19874Z" stroke="currentColor" stroke-linecap="round" stroke-linejoin="round"/>
</g>
<defs>
<clipPath id="clip0_248_2070">
<rect width="26" height="26" fill="white" transform="translate(0 0.948242)"/>
</clipPath>
</defs>
</svg>
