<svg width="26" height="26" viewBox="0 0 26 26" fill="none" xmlns="http://www.w3.org/2000/svg"><path d="M22.8368 23.8087C22.4584 24.5543 21.6789 25.0175 20.8502 24.9268C20.494 24.8879 20.1382 24.8402 19.783 24.7837C15.1541 24.0477 10.8761 21.8593 7.56222 18.5323C4.24829 15.2054 2.06855 10.9105 1.3354 6.2634C1.27919 5.9071 1.2317 5.55013 1.19289 5.19279C1.10253 4.36082 1.56391 3.5782 2.30667 3.19826L5.55725 1.53548C6.81529 0.891956 8.33752 1.64261 8.77994 2.98872C9.04827 3.80515 9.36516 4.60855 9.73023 5.39452C9.91316 5.78836 10.1072 6.17572 10.312 6.55619C10.7968 7.45695 10.4698 8.61228 9.54135 9.03594C8.19298 9.65125 7.87184 11.4292 8.91916 12.4806L13.5902 17.1701C14.6375 18.2215 16.4085 17.8991 17.0214 16.5454C17.4666 15.562 18.6736 15.2059 19.632 15.6971C19.8643 15.8162 20.0991 15.9313 20.3363 16.0423C21.2349 16.463 22.1563 16.8199 23.094 17.1126C24.4592 17.5387 25.2342 19.0851 24.5851 20.364L22.8368 23.8087Z" stroke="currentColor" stroke-linecap="round" stroke-linejoin="round"/></svg>