<svg width="48" height="49" viewBox="0 0 48 49" fill="none" xmlns="http://www.w3.org/2000/svg"><path d="M40.3635 18.2582C40.3635 9.6458 33.0373 2.66406 23.9999 2.66406C14.9625 2.66406 7.63623 9.6458 7.63623 18.2582V19.1975C7.63623 22.6434 8.76607 26.0033 10.8678 28.8074L23.9675 46.2846C23.9834 46.3057 24.0164 46.3057 24.0322 46.2846L37.1319 28.8074C39.2337 26.0033 40.3635 22.6434 40.3635 19.1975V18.2582Z" fill="#0266C1"/><path d="M21.0922 13.0589C22.9297 12.2216 25.0701 12.2216 26.9075 13.0589C28.7449 13.8961 30.0795 15.4796 30.5333 17.361C30.9871 19.2424 30.5108 21.2169 29.2392 22.7256C27.9677 24.2344 26.0393 25.1131 23.9999 25.1131C21.9605 25.1131 20.032 24.2344 18.7605 22.7256C17.4889 21.2169 17.0127 19.2424 17.4665 17.361C17.9203 15.4796 19.2548 13.8961 21.0922 13.0589Z" fill="white"/></svg>